<svg xmlns="http://www.w3.org/2000/svg" class="plot-d6a7b5" fill="currentColor" font-family="system-ui, sans-serif" font-size="10" text-anchor="middle" width="640" height="400" viewBox="0 0 640 400"><style>
     /* Minimal styling for Observable Plot v0.6+ - FINAL with Grids and Rules */
     .plot-axis line,
     .plot-axis path,
     .plot-domain,
     .plot-tick line {
       stroke: #000;
       stroke-width: 1;
     }
     .plot-tick text,
     .plot-label {
       font-family: sans-serif;
       font-size: 10px;
       fill: #000;
     }
     .plot-grid line {
       stroke: #ccc;
       stroke-width: 1;
     }
     .plot-domain { /* Style for plot-domain (axis lines) */
        fill: none;
        stroke: #000;
        stroke-width: 1;
      }
      .plot-axis path { /* Style for plot-axis path (axis lines) - redundant but safe */
        fill: none;
        stroke: #000;
        stroke-width: 1;
      }
      .plot-rule { /* Style for manually added axis rules */
        stroke: #000;
        stroke-width: 1;
        stroke-linecap: square;
      }
   </style><style>:where(.plot-d6a7b5) {
  --plot-background: white;
  display: block;
  height: auto;
  height: intrinsic;
  max-width: 100%;
}
:where(.plot-d6a7b5 text),
:where(.plot-d6a7b5 tspan) {
  white-space: pre;
}</style><g aria-label="y-axis tick" aria-hidden="true" fill="none" stroke="currentColor"><path transform="translate(40,400)" d="M0,0L-6,0"/><path transform="translate(40,359.99999999999994)" d="M0,0L-6,0"/><path transform="translate(40,319.99999999999994)" d="M0,0L-6,0"/><path transform="translate(40,280.00000000000006)" d="M0,0L-6,0"/><path transform="translate(40,240.00000000000003)" d="M0,0L-6,0"/><path transform="translate(40,200)" d="M0,0L-6,0"/><path transform="translate(40,159.99999999999997)" d="M0,0L-6,0"/><path transform="translate(40,119.99999999999993)" d="M0,0L-6,0"/><path transform="translate(40,80.00000000000007)" d="M0,0L-6,0"/><path transform="translate(40,40.000000000000036)" d="M0,0L-6,0"/><path transform="translate(40,0)" d="M0,0L-6,0"/></g><g aria-label="y-axis tick label" text-anchor="end" font-variant="tabular-nums" transform="translate(-9,0)"><text y="0.32em" transform="translate(40,400)">1.00</text><text y="0.32em" transform="translate(40,359.99999999999994)">1.05</text><text y="0.32em" transform="translate(40,319.99999999999994)">1.10</text><text y="0.32em" transform="translate(40,280.00000000000006)">1.15</text><text y="0.32em" transform="translate(40,240.00000000000003)">1.20</text><text y="0.32em" transform="translate(40,200)">1.25</text><text y="0.32em" transform="translate(40,159.99999999999997)">1.30</text><text y="0.32em" transform="translate(40,119.99999999999993)">1.35</text><text y="0.32em" transform="translate(40,80.00000000000007)">1.40</text><text y="0.32em" transform="translate(40,40.000000000000036)">1.45</text><text y="0.32em" transform="translate(40,0)">1.50</text></g><g aria-label="y-axis label" text-anchor="start" transform="translate(-37,-17)"><text y="0.71em" transform="translate(40,20)">↑ Pressure (atm)</text></g><g aria-label="x-axis tick" aria-hidden="true" fill="none" stroke="currentColor"><path transform="translate(43.840000000000146,370)" d="M0,0L0,6"/><path transform="translate(107.84000000000015,370)" d="M0,0L0,6"/><path transform="translate(171.84000000000015,370)" d="M0,0L0,6"/><path transform="translate(235.84000000000015,370)" d="M0,0L0,6"/><path transform="translate(299.84000000000015,370)" d="M0,0L0,6"/><path transform="translate(363.84000000000015,370)" d="M0,0L0,6"/><path transform="translate(427.84000000000015,370)" d="M0,0L0,6"/><path transform="translate(491.84000000000015,370)" d="M0,0L0,6"/><path transform="translate(555.8400000000001,370)" d="M0,0L0,6"/><path transform="translate(619.8400000000001,370)" d="M0,0L0,6"/></g><g aria-label="x-axis tick label" font-variant="tabular-nums" transform="translate(0,9)"><text y="0.71em" transform="translate(43.840000000000146,370)">280</text><text y="0.71em" transform="translate(107.84000000000015,370)">290</text><text y="0.71em" transform="translate(171.84000000000015,370)">300</text><text y="0.71em" transform="translate(235.84000000000015,370)">310</text><text y="0.71em" transform="translate(299.84000000000015,370)">320</text><text y="0.71em" transform="translate(363.84000000000015,370)">330</text><text y="0.71em" transform="translate(427.84000000000015,370)">340</text><text y="0.71em" transform="translate(491.84000000000015,370)">350</text><text y="0.71em" transform="translate(555.8400000000001,370)">360</text><text y="0.71em" transform="translate(619.8400000000001,370)">370</text></g><g aria-label="x-axis label" text-anchor="end" transform="translate(17,27)"><text transform="translate(620,370)">Temperature (K) →</text></g><g aria-label="rule" stroke="currentColor"><line x1="-1748.1599999999999" x2="-1748.1599999999999" y1="1200" y2="-318800"/></g><g aria-label="rule" stroke="currentColor"><line x1="-1748.1599999999999" x2="2347.84" y1="1200" y2="1200"/></g><g aria-label="x-grid" aria-hidden="true" stroke="currentColor" stroke-opacity="0.1"><line x1="43.840000000000146" x2="43.840000000000146" y1="20" y2="370"/><line x1="107.84000000000015" x2="107.84000000000015" y1="20" y2="370"/><line x1="171.84000000000015" x2="171.84000000000015" y1="20" y2="370"/><line x1="235.84000000000015" x2="235.84000000000015" y1="20" y2="370"/><line x1="299.84000000000015" x2="299.84000000000015" y1="20" y2="370"/><line x1="363.84000000000015" x2="363.84000000000015" y1="20" y2="370"/><line x1="427.84000000000015" x2="427.84000000000015" y1="20" y2="370"/><line x1="491.84000000000015" x2="491.84000000000015" y1="20" y2="370"/><line x1="555.8400000000001" x2="555.8400000000001" y1="20" y2="370"/><line x1="619.8400000000001" x2="619.8400000000001" y1="20" y2="370"/></g><g aria-label="y-grid" aria-hidden="true" stroke="currentColor" stroke-opacity="0.1"><line x1="40" x2="620" y1="400" y2="400"/><line x1="40" x2="620" y1="359.99999999999994" y2="359.99999999999994"/><line x1="40" x2="620" y1="319.99999999999994" y2="319.99999999999994"/><line x1="40" x2="620" y1="280.00000000000006" y2="280.00000000000006"/><line x1="40" x2="620" y1="240.00000000000003" y2="240.00000000000003"/><line x1="40" x2="620" y1="200" y2="200"/><line x1="40" x2="620" y1="159.99999999999997" y2="159.99999999999997"/><line x1="40" x2="620" y1="119.99999999999993" y2="119.99999999999993"/><line x1="40" x2="620" y1="80.00000000000007" y2="80.00000000000007"/><line x1="40" x2="620" y1="40.000000000000036" y2="40.000000000000036"/><line x1="40" x2="620" y1="0" y2="0"/></g><g aria-label="line" fill="none" stroke="currentColor" stroke-width="1.5" stroke-linejoin="round" stroke-linecap="round"><path d="M0,400L6.4,397.071L12.8,394.142L19.2,391.214L25.6,388.285L32,385.356L38.4,382.427L44.8,379.498L51.2,376.57L57.6,373.641L64,370.712L70.4,367.783L76.8,364.854L83.2,361.926L89.6,358.997L96,356.068L102.4,353.139L108.8,350.211L115.2,347.282L121.6,344.353L128,341.424L134.4,338.495L140.8,335.567L147.2,332.638L153.6,329.709L160,326.78L166.4,323.851L172.8,320.923L179.2,317.994L185.6,315.065L192,312.136L198.4,309.207L204.8,306.279L211.2,303.35L217.6,300.421L224,297.492L230.4,294.563L236.8,291.635L243.2,288.706L249.6,285.777L256,282.848L262.4,279.919L268.8,276.991L275.2,274.062L281.6,271.133L288,268.204L294.4,265.275L300.8,262.347L307.2,259.418L313.6,256.489L320,253.56L326.4,250.632L332.8,247.703L339.2,244.774L345.6,241.845L352,238.916L358.4,235.988L364.8,233.059L371.2,230.13L377.6,227.201L384,224.272L390.4,221.344L396.8,218.415L403.2,215.486L409.6,212.557L416,209.628L422.4,206.7L428.8,203.771L435.2,200.842L441.6,197.913L448,194.984L454.4,192.056L460.8,189.127L467.2,186.198L473.6,183.269L480,180.34L486.4,177.412L492.8,174.483L499.2,171.554L505.6,168.625L512,165.697L518.4,162.768L524.8,159.839L531.2,156.91L537.6,153.981L544,151.053L550.4,148.124L556.8,145.195L563.2,142.266L569.6,139.337L576,136.409L582.4,133.48L588.8,130.551L595.2,127.622L601.6,124.693L608,121.765L614.4,118.836L620.8,115.907L627.2,112.978L633.6,110.049"/></g></svg>